<mxfile host="app.diagrams.net" modified="2022-06-09T09:35:29.177Z" agent="5.0 (Windows NT 10.0; Win64; x64) AppleWebKit/537.36 (KHTML, like Gecko) Chrome/102.0.0.0 Safari/537.36" etag="l6y6rVkeC5Sbg7_4CExC" version="19.0.2" type="github">
  <diagram id="HjW6Bx54FUwouaJQwLBq" name="Page-1">
    <mxGraphModel dx="3201" dy="2258" grid="1" gridSize="10" guides="1" tooltips="1" connect="1" arrows="1" fold="1" page="1" pageScale="1" pageWidth="827" pageHeight="1169" math="0" shadow="0">
      <root>
        <mxCell id="0" />
        <mxCell id="1" parent="0" />
        <mxCell id="9AfMbRzPFio4UTHCIGQ_-1" value="档案模块" style="swimlane;fontStyle=0;childLayout=stackLayout;horizontal=1;startSize=30;horizontalStack=0;resizeParent=1;resizeParentMax=0;resizeLast=0;collapsible=1;marginBottom=0;" vertex="1" parent="1">
          <mxGeometry x="-700" y="-140" width="140" height="160" as="geometry" />
        </mxCell>
        <mxCell id="9AfMbRzPFio4UTHCIGQ_-6" value="&lt;div&gt;病人基本信息&lt;/div&gt;&lt;div&gt;签约档案基本信息&lt;/div&gt;&lt;div&gt;药物过敏史相关信息&lt;/div&gt;&lt;div&gt;既往疾病史相关信息&lt;/div&gt;&lt;div&gt;既往手术史相关信息&lt;/div&gt;&lt;div&gt;既往外伤史相关信息&lt;/div&gt;&lt;div&gt;既往输血史相关信息&lt;/div&gt;&lt;div&gt;家族疾病史相关信息&lt;/div&gt;&lt;div&gt;&lt;br&gt;&lt;/div&gt;" style="text;html=1;align=center;verticalAlign=middle;resizable=0;points=[];autosize=1;strokeColor=none;fillColor=none;" vertex="1" parent="9AfMbRzPFio4UTHCIGQ_-1">
          <mxGeometry y="30" width="140" height="130" as="geometry" />
        </mxCell>
        <mxCell id="9AfMbRzPFio4UTHCIGQ_-11" value="通用名同步模块" style="swimlane;fontStyle=0;childLayout=stackLayout;horizontal=1;startSize=30;horizontalStack=0;resizeParent=1;resizeParentMax=0;resizeLast=0;collapsible=1;marginBottom=0;" vertex="1" parent="1">
          <mxGeometry x="1140" y="600" width="300" height="50" as="geometry" />
        </mxCell>
        <mxCell id="9AfMbRzPFio4UTHCIGQ_-12" value="&lt;span style=&quot;color: rgb(51, 51, 51); font-family: &amp;quot;Open Sans&amp;quot;, &amp;quot;Clear Sans&amp;quot;, &amp;quot;Helvetica Neue&amp;quot;, Helvetica, Arial, sans-serif; font-size: 16px; text-align: left; background-color: rgb(255, 255, 255);&quot;&gt;id+拼音+名称&lt;/span&gt;" style="text;html=1;align=center;verticalAlign=middle;resizable=0;points=[];autosize=1;strokeColor=none;fillColor=none;" vertex="1" parent="9AfMbRzPFio4UTHCIGQ_-11">
          <mxGeometry y="30" width="300" height="20" as="geometry" />
        </mxCell>
        <mxCell id="9AfMbRzPFio4UTHCIGQ_-13" value="签约模块" style="swimlane;fontStyle=0;childLayout=stackLayout;horizontal=1;startSize=30;horizontalStack=0;resizeParent=1;resizeParentMax=0;resizeLast=0;collapsible=1;marginBottom=0;" vertex="1" parent="1">
          <mxGeometry x="-436" y="40" width="284" height="100" as="geometry" />
        </mxCell>
        <mxCell id="9AfMbRzPFio4UTHCIGQ_-14" value="&lt;ul style=&quot;box-sizing: border-box; margin: 0.8em 0px; padding-left: 30px; color: rgb(51, 51, 51); font-family: &amp;quot;Open Sans&amp;quot;, &amp;quot;Clear Sans&amp;quot;, &amp;quot;Helvetica Neue&amp;quot;, Helvetica, Arial, sans-serif; font-size: 16px; text-align: start;&quot; data-mark=&quot;*&quot; class=&quot;ul-list&quot;&gt;&lt;li style=&quot;box-sizing: border-box; margin: 0px; position: relative;&quot; class=&quot;md-focus-container&quot;&gt;&lt;p style=&quot;box-sizing: border-box; margin-block: 1rem; margin: 0.5rem 0px; width: inherit; position: relative;&quot;&gt;&lt;span style=&quot;box-sizing: border-box; display: block;&quot; class=&quot;md-line md-end-block md-focus&quot;&gt;&lt;span style=&quot;box-sizing: border-box;&quot; class=&quot;md-expand&quot;&gt;签约档案签约信息的信息段&lt;/span&gt;&lt;/span&gt;&lt;/p&gt;&lt;/li&gt;&lt;li style=&quot;box-sizing: border-box; margin: 0px; position: relative;&quot; class=&quot;&quot;&gt;&lt;p style=&quot;box-sizing: border-box; margin-block: 1rem; margin: 0.5rem 0px; width: inherit; position: relative;&quot;&gt;&lt;span style=&quot;box-sizing: border-box; display: block;&quot; class=&quot;md-line md-end-block md-focus&quot;&gt;&lt;span style=&quot;box-sizing: border-box;&quot; class=&quot;&quot;&gt;签约档案服务包信息的信息段(数组)&lt;/span&gt;&lt;/span&gt;&lt;/p&gt;&lt;/li&gt;&lt;/ul&gt;" style="text;html=1;align=center;verticalAlign=middle;resizable=0;points=[];autosize=1;strokeColor=none;fillColor=none;" vertex="1" parent="9AfMbRzPFio4UTHCIGQ_-13">
          <mxGeometry y="30" width="284" height="70" as="geometry" />
        </mxCell>
        <mxCell id="9AfMbRzPFio4UTHCIGQ_-15" value="挂号模块" style="swimlane;fontStyle=0;childLayout=stackLayout;horizontal=1;startSize=30;horizontalStack=0;resizeParent=1;resizeParentMax=0;resizeLast=0;collapsible=1;marginBottom=0;" vertex="1" parent="1">
          <mxGeometry y="-270" width="377" height="100" as="geometry" />
        </mxCell>
        <mxCell id="9AfMbRzPFio4UTHCIGQ_-16" value="&lt;ul style=&quot;box-sizing: border-box; margin: 0.8em 0px; padding-left: 30px; color: rgb(51, 51, 51); font-family: &amp;quot;Open Sans&amp;quot;, &amp;quot;Clear Sans&amp;quot;, &amp;quot;Helvetica Neue&amp;quot;, Helvetica, Arial, sans-serif; font-size: 16px; text-align: start;&quot; data-mark=&quot;*&quot; class=&quot;ul-list&quot;&gt;&lt;li style=&quot;box-sizing: border-box; margin: 0px; position: relative;&quot; class=&quot;md-focus-container&quot;&gt;&lt;p style=&quot;box-sizing: border-box; margin-block: 1rem; margin: 0.5rem 0px; width: inherit; position: relative;&quot;&gt;&lt;span style=&quot;box-sizing: border-box; display: block;&quot; class=&quot;md-line md-end-block md-focus&quot;&gt;&lt;span style=&quot;box-sizing: border-box;&quot; class=&quot;md-expand&quot;&gt;病人就诊的相关信息段&lt;/span&gt;&lt;/span&gt;&lt;/p&gt;&lt;/li&gt;&lt;li style=&quot;box-sizing: border-box; margin: 0px; position: relative;&quot; class=&quot;&quot;&gt;&lt;p style=&quot;box-sizing: border-box; margin-block: 1rem; margin: 0.5rem 0px; width: inherit; position: relative;&quot;&gt;&lt;span style=&quot;box-sizing: border-box; display: block;&quot; class=&quot;md-line md-end-block md-focus&quot;&gt;&lt;span style=&quot;box-sizing: border-box;&quot; class=&quot;&quot;&gt;事件类型，必要的触发事件信息接收应用程序通信&lt;/span&gt;&lt;/span&gt;&lt;/p&gt;&lt;/li&gt;&lt;/ul&gt;" style="text;html=1;align=center;verticalAlign=middle;resizable=0;points=[];autosize=1;strokeColor=none;fillColor=none;" vertex="1" parent="9AfMbRzPFio4UTHCIGQ_-15">
          <mxGeometry y="30" width="377" height="70" as="geometry" />
        </mxCell>
        <mxCell id="9AfMbRzPFio4UTHCIGQ_-18" value="签约档案模块" style="swimlane;fontStyle=0;childLayout=stackLayout;horizontal=1;startSize=30;horizontalStack=0;resizeParent=1;resizeParentMax=0;resizeLast=0;collapsible=1;marginBottom=0;" vertex="1" parent="1">
          <mxGeometry x="-436" y="-140" width="287" height="100" as="geometry" />
        </mxCell>
        <mxCell id="9AfMbRzPFio4UTHCIGQ_-19" value="&lt;div style=&quot;text-align: left;&quot;&gt;&lt;ul style=&quot;box-sizing: border-box; margin: 0.8em 0px; padding-left: 30px; color: rgb(51, 51, 51); font-family: &amp;quot;Open Sans&amp;quot;, &amp;quot;Clear Sans&amp;quot;, &amp;quot;Helvetica Neue&amp;quot;, Helvetica, Arial, sans-serif; font-size: 16px;&quot; data-mark=&quot;*&quot; class=&quot;ul-list&quot;&gt;&lt;li style=&quot;box-sizing: border-box; margin: 0px; position: relative;&quot; class=&quot;md-focus-container&quot;&gt;&lt;p style=&quot;box-sizing: border-box; margin-block: 1rem; margin: 0.5rem 0px; width: inherit; position: relative;&quot;&gt;&lt;span style=&quot;box-sizing: border-box; display: block;&quot; class=&quot;md-line md-end-block md-focus&quot;&gt;&lt;span style=&quot;box-sizing: border-box;&quot; class=&quot;md-expand&quot;&gt;签约档案签约信息的信息段 &lt;/span&gt;&lt;/span&gt;&lt;/p&gt;&lt;/li&gt;&lt;li style=&quot;box-sizing: border-box; margin: 0px; position: relative;&quot; class=&quot;&quot;&gt;&lt;p style=&quot;box-sizing: border-box; margin-block: 1rem; margin: 0.5rem 0px; width: inherit; position: relative;&quot;&gt;&lt;span style=&quot;box-sizing: border-box; display: block;&quot; class=&quot;md-line md-end-block md-focus&quot;&gt;&lt;span style=&quot;box-sizing: border-box;&quot; class=&quot;&quot;&gt;签约档案服务包信息的信息段(数组)&lt;/span&gt;&lt;/span&gt;&lt;/p&gt;&lt;/li&gt;&lt;/ul&gt;&lt;/div&gt;" style="text;html=1;align=center;verticalAlign=middle;resizable=0;points=[];autosize=1;strokeColor=none;fillColor=none;" vertex="1" parent="9AfMbRzPFio4UTHCIGQ_-18">
          <mxGeometry y="30" width="287" height="70" as="geometry" />
        </mxCell>
        <mxCell id="9AfMbRzPFio4UTHCIGQ_-20" value="体征模块" style="swimlane;fontStyle=0;childLayout=stackLayout;horizontal=1;startSize=30;horizontalStack=0;resizeParent=1;resizeParentMax=0;resizeLast=0;collapsible=1;marginBottom=0;" vertex="1" parent="1">
          <mxGeometry y="645" width="350" height="230" as="geometry" />
        </mxCell>
        <mxCell id="9AfMbRzPFio4UTHCIGQ_-21" value="&lt;div style=&quot;text-align: left;&quot;&gt;&lt;ul style=&quot;box-sizing: border-box; margin: 0.8em 0px; padding-left: 30px; color: rgb(51, 51, 51); font-family: &amp;quot;Open Sans&amp;quot;, &amp;quot;Clear Sans&amp;quot;, &amp;quot;Helvetica Neue&amp;quot;, Helvetica, Arial, sans-serif; font-size: 16px;&quot; data-mark=&quot;*&quot; class=&quot;ul-list&quot;&gt;&lt;li style=&quot;box-sizing: border-box; margin: 0px; position: relative;&quot; class=&quot;&quot;&gt;&lt;p style=&quot;box-sizing: border-box; margin-block: 1rem; margin: 0.5rem 0px; width: inherit; position: relative;&quot;&gt;&lt;span style=&quot;box-sizing: border-box; display: block;&quot; class=&quot;md-line md-end-block&quot;&gt;&lt;span style=&quot;box-sizing: border-box;&quot; class=&quot;md-expand&quot;&gt;病人就诊的相关信息段&lt;/span&gt;&lt;/span&gt;&lt;/p&gt;&lt;/li&gt;&lt;li style=&quot;box-sizing: border-box; margin: 0px; position: relative;&quot;&gt;&lt;p style=&quot;box-sizing: border-box; margin-block: 1rem; margin: 0.5rem 0px; width: inherit; position: relative;&quot;&gt;&lt;span style=&quot;box-sizing: border-box; display: block;&quot; class=&quot;md-line md-end-block&quot;&gt;&lt;span style=&quot;box-sizing: border-box;&quot;&gt;血糖相关信息的信息段（XTXG）&lt;/span&gt;&lt;/span&gt;&lt;/p&gt;&lt;/li&gt;&lt;li style=&quot;box-sizing: border-box; margin: 0px; position: relative;&quot;&gt;&lt;p style=&quot;box-sizing: border-box; margin-block: 1rem; margin: 0.5rem 0px; width: inherit; position: relative;&quot;&gt;&lt;span style=&quot;box-sizing: border-box; display: block;&quot; class=&quot;md-line md-end-block&quot;&gt;&lt;span style=&quot;box-sizing: border-box;&quot;&gt;血压相关信息的信息段(XYXG)&lt;/span&gt;&lt;/span&gt;&lt;/p&gt;&lt;/li&gt;&lt;li style=&quot;box-sizing: border-box; margin: 0px; position: relative;&quot;&gt;&lt;p style=&quot;box-sizing: border-box; margin-block: 1rem; margin: 0.5rem 0px; width: inherit; position: relative;&quot;&gt;&lt;span style=&quot;box-sizing: border-box; display: block;&quot; class=&quot;md-line md-end-block&quot;&gt;&lt;span style=&quot;box-sizing: border-box;&quot;&gt;身体相关信息的信息段(STXG)&lt;/span&gt;&lt;/span&gt;&lt;/p&gt;&lt;/li&gt;&lt;li style=&quot;box-sizing: border-box; margin: 0px; position: relative;&quot;&gt;&lt;p style=&quot;box-sizing: border-box; margin-block: 1rem; margin: 0.5rem 0px; width: inherit; position: relative;&quot;&gt;&lt;span style=&quot;box-sizing: border-box; display: block;&quot; class=&quot;md-line md-end-block&quot;&gt;&lt;span style=&quot;box-sizing: border-box;&quot;&gt;Fat人体成分（脂肪）相关信息的信息段(RTCF)&lt;/span&gt;&lt;/span&gt;&lt;/p&gt;&lt;/li&gt;&lt;li style=&quot;box-sizing: border-box; margin: 0px; position: relative;&quot;&gt;&lt;p style=&quot;box-sizing: border-box; margin-block: 1rem; margin: 0.5rem 0px; width: inherit; position: relative;&quot;&gt;&lt;span style=&quot;box-sizing: border-box; display: block;&quot; class=&quot;md-line md-end-block&quot;&gt;&lt;span style=&quot;box-sizing: border-box;&quot;&gt;血氧相关信息的信息段(XIEYANG)&lt;/span&gt;&lt;/span&gt;&lt;/p&gt;&lt;/li&gt;&lt;li style=&quot;box-sizing: border-box; margin: 0px; position: relative;&quot;&gt;&lt;p style=&quot;box-sizing: border-box; margin-block: 1rem; margin: 0.5rem 0px; width: inherit; position: relative;&quot;&gt;&lt;span style=&quot;box-sizing: border-box; display: block;&quot; class=&quot;md-line md-end-block&quot;&gt;&lt;span style=&quot;box-sizing: border-box;&quot;&gt;PEEcg12导心电相关信息的信息段(XDXG)&lt;/span&gt;&lt;/span&gt;&lt;/p&gt;&lt;/li&gt;&lt;li style=&quot;box-sizing: border-box; margin: 0px; position: relative;&quot; class=&quot;md-focus-container&quot;&gt;&lt;p style=&quot;box-sizing: border-box; margin-block: 1rem; margin: 0.5rem 0px; width: inherit; position: relative;&quot;&gt;&lt;span style=&quot;box-sizing: border-box; display: block;&quot; class=&quot;md-line md-end-block md-focus&quot;&gt;&lt;span style=&quot;box-sizing: border-box;&quot; class=&quot;&quot;&gt;体温相关信息的信息段(TWXG)&lt;/span&gt;&lt;/span&gt;&lt;/p&gt;&lt;/li&gt;&lt;/ul&gt;&lt;/div&gt;" style="text;html=1;align=center;verticalAlign=middle;resizable=0;points=[];autosize=1;strokeColor=none;fillColor=none;" vertex="1" parent="9AfMbRzPFio4UTHCIGQ_-20">
          <mxGeometry y="30" width="350" height="200" as="geometry" />
        </mxCell>
        <mxCell id="9AfMbRzPFio4UTHCIGQ_-25" value="检验模块" style="swimlane;fontStyle=0;childLayout=stackLayout;horizontal=1;startSize=30;horizontalStack=0;resizeParent=1;resizeParentMax=0;resizeLast=0;collapsible=1;marginBottom=0;" vertex="1" parent="1">
          <mxGeometry x="-2" y="80" width="442" height="190" as="geometry" />
        </mxCell>
        <mxCell id="9AfMbRzPFio4UTHCIGQ_-26" value="&lt;div style=&quot;text-align: left;&quot;&gt;&lt;ul style=&quot;box-sizing: border-box; margin: 0.8em 0px; padding-left: 30px; color: rgb(51, 51, 51); font-family: &amp;quot;Open Sans&amp;quot;, &amp;quot;Clear Sans&amp;quot;, &amp;quot;Helvetica Neue&amp;quot;, Helvetica, Arial, sans-serif; font-size: 16px;&quot; data-mark=&quot;*&quot; class=&quot;ul-list&quot;&gt;&lt;li style=&quot;box-sizing: border-box; margin: 0px; position: relative;&quot; class=&quot;&quot;&gt;&lt;p style=&quot;box-sizing: border-box; margin-block: 1rem; margin: 0.5rem 0px; width: inherit; position: relative;&quot;&gt;&lt;span style=&quot;box-sizing: border-box; display: block;&quot; class=&quot;md-line md-end-block&quot;&gt;&lt;span style=&quot;box-sizing: border-box;&quot; class=&quot;md-expand&quot;&gt;病人就诊的相关信息段&lt;/span&gt;&lt;/span&gt;&lt;/p&gt;&lt;/li&gt;&lt;li style=&quot;box-sizing: border-box; margin: 0px; position: relative;&quot;&gt;&lt;p style=&quot;box-sizing: border-box; margin-block: 1rem; margin: 0.5rem 0px; width: inherit; position: relative;&quot;&gt;&lt;span style=&quot;box-sizing: border-box; display: block;&quot; class=&quot;md-line md-end-block&quot;&gt;&lt;span style=&quot;box-sizing: border-box;&quot;&gt;申请单相关细节段，主要说明申请的项目相关信息&lt;/span&gt;&lt;/span&gt;&lt;/p&gt;&lt;/li&gt;&lt;li style=&quot;box-sizing: border-box; margin: 0px; position: relative;&quot;&gt;&lt;p style=&quot;box-sizing: border-box; margin-block: 1rem; margin: 0.5rem 0px; width: inherit; position: relative;&quot;&gt;&lt;span style=&quot;box-sizing: border-box; display: block;&quot; class=&quot;md-line md-end-block&quot;&gt;&lt;span style=&quot;box-sizing: border-box;&quot;&gt;申请单主要说明段，说明申请相关的科室医生费用等基本信息&lt;/span&gt;&lt;/span&gt;&lt;/p&gt;&lt;/li&gt;&lt;li style=&quot;box-sizing: border-box; margin: 0px; position: relative;&quot;&gt;&lt;p style=&quot;box-sizing: border-box; margin-block: 1rem; margin: 0.5rem 0px; width: inherit; position: relative;&quot;&gt;&lt;span style=&quot;box-sizing: border-box; display: block;&quot; class=&quot;md-line md-end-block&quot;&gt;&lt;span style=&quot;box-sizing: border-box;&quot;&gt;样本信息段&lt;/span&gt;&lt;/span&gt;&lt;/p&gt;&lt;/li&gt;&lt;li style=&quot;box-sizing: border-box; margin: 0px; position: relative;&quot;&gt;&lt;p style=&quot;box-sizing: border-box; margin-block: 1rem; margin: 0.5rem 0px; width: inherit; position: relative;&quot;&gt;&lt;span style=&quot;box-sizing: border-box; display: block;&quot; class=&quot;md-line md-end-block&quot;&gt;&lt;span style=&quot;box-sizing: border-box;&quot;&gt;传输一个观察或观察片段。它代表了最小不可分割的单位报告&lt;/span&gt;&lt;/span&gt;&lt;/p&gt;&lt;/li&gt;&lt;li style=&quot;box-sizing: border-box; margin: 0px; position: relative;&quot; class=&quot;md-focus-container&quot;&gt;&lt;p style=&quot;box-sizing: border-box; margin-block: 1rem; margin: 0.5rem 0px; width: inherit; position: relative;&quot;&gt;&lt;span style=&quot;box-sizing: border-box; display: block;&quot; class=&quot;md-line md-end-block md-focus&quot;&gt;&lt;span style=&quot;box-sizing: border-box;&quot; class=&quot;&quot;&gt;传输一个观察报告图片&lt;/span&gt;&lt;/span&gt;&lt;/p&gt;&lt;/li&gt;&lt;/ul&gt;&lt;/div&gt;" style="text;html=1;align=center;verticalAlign=middle;resizable=0;points=[];autosize=1;strokeColor=none;fillColor=none;" vertex="1" parent="9AfMbRzPFio4UTHCIGQ_-25">
          <mxGeometry y="30" width="442" height="160" as="geometry" />
        </mxCell>
        <mxCell id="9AfMbRzPFio4UTHCIGQ_-27" value="收费项目同步模块" style="swimlane;fontStyle=0;childLayout=stackLayout;horizontal=1;startSize=30;horizontalStack=0;resizeParent=1;resizeParentMax=0;resizeLast=0;collapsible=1;marginBottom=0;" vertex="1" parent="1">
          <mxGeometry x="1140" y="300" width="284" height="100" as="geometry" />
        </mxCell>
        <mxCell id="9AfMbRzPFio4UTHCIGQ_-28" value="&lt;div style=&quot;text-align: left;&quot;&gt;&lt;ul style=&quot;box-sizing: border-box; margin: 0.8em 0px; padding-left: 30px; color: rgb(51, 51, 51); font-family: &amp;quot;Open Sans&amp;quot;, &amp;quot;Clear Sans&amp;quot;, &amp;quot;Helvetica Neue&amp;quot;, Helvetica, Arial, sans-serif; font-size: 16px;&quot; data-mark=&quot;*&quot; class=&quot;ul-list&quot;&gt;&lt;li style=&quot;box-sizing: border-box; margin: 0px; position: relative;&quot; class=&quot;md-focus-container&quot;&gt;&lt;p style=&quot;box-sizing: border-box; margin-block: 1rem; margin: 0.5rem 0px; width: inherit; position: relative;&quot;&gt;&lt;span style=&quot;box-sizing: border-box; display: block;&quot; class=&quot;md-line md-end-block md-focus&quot;&gt;&lt;span style=&quot;box-sizing: border-box;&quot; class=&quot;md-expand&quot;&gt;字典信息&lt;/span&gt;&lt;/span&gt;&lt;/p&gt;&lt;/li&gt;&lt;/ul&gt;&lt;ul style=&quot;box-sizing: border-box; margin: 0.8em 0px; padding-left: 30px; color: rgb(51, 51, 51); font-family: &amp;quot;Open Sans&amp;quot;, &amp;quot;Clear Sans&amp;quot;, &amp;quot;Helvetica Neue&amp;quot;, Helvetica, Arial, sans-serif; font-size: 16px;&quot; data-mark=&quot;*&quot; class=&quot;ul-list&quot;&gt;&lt;li style=&quot;box-sizing: border-box; margin: 0px; position: relative;&quot; class=&quot;&quot;&gt;&lt;p style=&quot;box-sizing: border-box; margin-block: 1rem; margin: 0.5rem 0px; width: inherit; position: relative;&quot;&gt;&lt;span style=&quot;box-sizing: border-box; display: block;&quot; class=&quot;md-line md-end-block md-focus&quot;&gt;&lt;span style=&quot;box-sizing: border-box;&quot; class=&quot;&quot;&gt;收费项目字典同步信息的信息段&lt;/span&gt;&lt;/span&gt;&lt;/p&gt;&lt;/li&gt;&lt;/ul&gt;&lt;/div&gt;" style="text;html=1;align=center;verticalAlign=middle;resizable=0;points=[];autosize=1;strokeColor=none;fillColor=none;" vertex="1" parent="9AfMbRzPFio4UTHCIGQ_-27">
          <mxGeometry y="30" width="284" height="70" as="geometry" />
        </mxCell>
        <mxCell id="9AfMbRzPFio4UTHCIGQ_-29" value="体检模块" style="swimlane;fontStyle=0;childLayout=stackLayout;horizontal=1;startSize=30;horizontalStack=0;resizeParent=1;resizeParentMax=0;resizeLast=0;collapsible=1;marginBottom=0;" vertex="1" parent="1">
          <mxGeometry x="957" y="-290" width="284" height="50" as="geometry" />
        </mxCell>
        <mxCell id="9AfMbRzPFio4UTHCIGQ_-30" value="&lt;div style=&quot;text-align: left;&quot;&gt;&lt;span style=&quot;color: rgb(51, 51, 51); font-family: &amp;quot;Open Sans&amp;quot;, &amp;quot;Clear Sans&amp;quot;, &amp;quot;Helvetica Neue&amp;quot;, Helvetica, Arial, sans-serif; font-size: 16px; background-color: rgb(255, 255, 255);&quot;&gt;项目较多&lt;/span&gt;&lt;font face=&quot;Open Sans, Clear Sans, Helvetica Neue, Helvetica, Arial, sans-serif&quot; color=&quot;#333333&quot;&gt;&lt;span style=&quot;font-size: 16px;&quot;&gt;&lt;br&gt;&lt;/span&gt;&lt;/font&gt;&lt;/div&gt;" style="text;html=1;align=center;verticalAlign=middle;resizable=0;points=[];autosize=1;strokeColor=none;fillColor=none;" vertex="1" parent="9AfMbRzPFio4UTHCIGQ_-29">
          <mxGeometry y="30" width="284" height="20" as="geometry" />
        </mxCell>
        <mxCell id="9AfMbRzPFio4UTHCIGQ_-31" value="检验申请模块" style="swimlane;fontStyle=0;childLayout=stackLayout;horizontal=1;startSize=30;horizontalStack=0;resizeParent=1;resizeParentMax=0;resizeLast=0;collapsible=1;marginBottom=0;" vertex="1" parent="1">
          <mxGeometry x="-20" y="-150" width="460" height="140" as="geometry" />
        </mxCell>
        <mxCell id="9AfMbRzPFio4UTHCIGQ_-32" value="&lt;div style=&quot;text-align: left;&quot;&gt;&lt;ul style=&quot;box-sizing: border-box; margin: 0.8em 0px; padding-left: 30px; color: rgb(51, 51, 51); font-family: &amp;quot;Open Sans&amp;quot;, &amp;quot;Clear Sans&amp;quot;, &amp;quot;Helvetica Neue&amp;quot;, Helvetica, Arial, sans-serif; font-size: 16px;&quot; data-mark=&quot;*&quot; class=&quot;ul-list&quot;&gt;&lt;li style=&quot;box-sizing: border-box; margin: 0px; position: relative;&quot; class=&quot;md-focus-container&quot;&gt;&lt;p style=&quot;box-sizing: border-box; margin-block: 1rem; margin: 0.5rem 0px; width: inherit; position: relative;&quot;&gt;&lt;span style=&quot;box-sizing: border-box; display: block;&quot; class=&quot;md-line md-end-block md-focus&quot;&gt;&lt;span style=&quot;box-sizing: border-box;&quot; class=&quot;md-expand&quot;&gt;病人就诊的相关信息段&lt;/span&gt;&lt;/span&gt;&lt;/p&gt;&lt;/li&gt;&lt;li style=&quot;box-sizing: border-box; margin: 0px; position: relative;&quot; class=&quot;&quot;&gt;&lt;p style=&quot;box-sizing: border-box; margin-block: 1rem; margin: 0.5rem 0px; width: inherit; position: relative;&quot;&gt;&lt;span style=&quot;box-sizing: border-box; display: block;&quot; class=&quot;md-line md-end-block&quot;&gt;&lt;span style=&quot;box-sizing: border-box;&quot; class=&quot;&quot;&gt;申请单主要说明段，说明申请相关的科室医生费用等基本信息&lt;/span&gt;&lt;/span&gt;&lt;/p&gt;&lt;/li&gt;&lt;li style=&quot;box-sizing: border-box; margin: 0px; position: relative;&quot;&gt;&lt;p style=&quot;box-sizing: border-box; margin-block: 1rem; margin: 0.5rem 0px; width: inherit; position: relative;&quot;&gt;&lt;span style=&quot;box-sizing: border-box; display: block;&quot; class=&quot;md-line md-end-block&quot;&gt;&lt;span style=&quot;box-sizing: border-box;&quot;&gt;申请单相关细节段，主要说明申请的项目相关信息&lt;/span&gt;&lt;/span&gt;&lt;/p&gt;&lt;/li&gt;&lt;li style=&quot;box-sizing: border-box; margin: 0px; position: relative;&quot; class=&quot;&quot;&gt;&lt;p style=&quot;box-sizing: border-box; margin-block: 1rem; margin: 0.5rem 0px; width: inherit; position: relative;&quot;&gt;&lt;span style=&quot;box-sizing: border-box; display: block;&quot; class=&quot;md-line md-end-block md-focus&quot;&gt;&lt;span style=&quot;box-sizing: border-box;&quot; class=&quot;&quot;&gt;数量与时间相关信息段&lt;/span&gt;&lt;/span&gt;&lt;/p&gt;&lt;/li&gt;&lt;/ul&gt;&lt;/div&gt;" style="text;html=1;align=center;verticalAlign=middle;resizable=0;points=[];autosize=1;strokeColor=none;fillColor=none;" vertex="1" parent="9AfMbRzPFio4UTHCIGQ_-31">
          <mxGeometry y="30" width="460" height="110" as="geometry" />
        </mxCell>
        <mxCell id="9AfMbRzPFio4UTHCIGQ_-33" value="随访模块" style="swimlane;fontStyle=0;childLayout=stackLayout;horizontal=1;startSize=30;horizontalStack=0;resizeParent=1;resizeParentMax=0;resizeLast=0;collapsible=1;marginBottom=0;" vertex="1" parent="1">
          <mxGeometry x="970" y="-40" width="284" height="50" as="geometry" />
        </mxCell>
        <mxCell id="9AfMbRzPFio4UTHCIGQ_-34" value="&lt;div style=&quot;text-align: left;&quot;&gt;&lt;div&gt;&lt;span style=&quot;color: rgb(51, 51, 51); font-family: &amp;quot;Open Sans&amp;quot;, &amp;quot;Clear Sans&amp;quot;, &amp;quot;Helvetica Neue&amp;quot;, Helvetica, Arial, sans-serif; font-size: 16px; background-color: rgb(255, 255, 255);&quot;&gt;11项内容&lt;/span&gt;&lt;font face=&quot;Open Sans, Clear Sans, Helvetica Neue, Helvetica, Arial, sans-serif&quot; color=&quot;#333333&quot;&gt;&lt;span style=&quot;font-size: 16px;&quot;&gt;&lt;br&gt;&lt;/span&gt;&lt;/font&gt;&lt;/div&gt;&lt;/div&gt;" style="text;html=1;align=center;verticalAlign=middle;resizable=0;points=[];autosize=1;strokeColor=none;fillColor=none;" vertex="1" parent="9AfMbRzPFio4UTHCIGQ_-33">
          <mxGeometry y="30" width="284" height="20" as="geometry" />
        </mxCell>
        <mxCell id="9AfMbRzPFio4UTHCIGQ_-35" value="药品模块" style="swimlane;fontStyle=0;childLayout=stackLayout;horizontal=1;startSize=30;horizontalStack=0;resizeParent=1;resizeParentMax=0;resizeLast=0;collapsible=1;marginBottom=0;" vertex="1" parent="1">
          <mxGeometry y="940" width="770" height="140" as="geometry" />
        </mxCell>
        <mxCell id="9AfMbRzPFio4UTHCIGQ_-36" value="&lt;div style=&quot;text-align: left;&quot;&gt;&lt;div&gt;&lt;ul style=&quot;box-sizing: border-box; margin: 0.8em 0px; padding-left: 30px; color: rgb(51, 51, 51); font-family: &amp;quot;Open Sans&amp;quot;, &amp;quot;Clear Sans&amp;quot;, &amp;quot;Helvetica Neue&amp;quot;, Helvetica, Arial, sans-serif; font-size: 16px;&quot; data-mark=&quot;*&quot; class=&quot;ul-list&quot;&gt;&lt;li style=&quot;box-sizing: border-box; margin: 0px; position: relative;&quot; class=&quot;&quot;&gt;&lt;p style=&quot;box-sizing: border-box; margin-block: 1rem; margin: 0.5rem 0px; width: inherit; position: relative;&quot;&gt;&lt;span style=&quot;box-sizing: border-box; display: block;&quot; class=&quot;md-line md-end-block&quot;&gt;&lt;span style=&quot;box-sizing: border-box;&quot; class=&quot;md-expand&quot;&gt;病人就诊的相关信息段&lt;/span&gt;&lt;/span&gt;&lt;/p&gt;&lt;/li&gt;&lt;li style=&quot;box-sizing: border-box; margin: 0px; position: relative;&quot;&gt;&lt;p style=&quot;box-sizing: border-box; margin-block: 1rem; margin: 0.5rem 0px; width: inherit; position: relative;&quot;&gt;&lt;span style=&quot;box-sizing: border-box; display: block;&quot; class=&quot;md-line md-end-block&quot;&gt;&lt;span style=&quot;box-sizing: border-box;&quot;&gt;申请单主要说明段，说明申请相关的科室医生费用等基本信息&lt;/span&gt;&lt;/span&gt;&lt;/p&gt;&lt;/li&gt;&lt;li style=&quot;box-sizing: border-box; margin: 0px; position: relative;&quot; class=&quot;&quot;&gt;&lt;p style=&quot;box-sizing: border-box; margin-block: 1rem; margin: 0.5rem 0px; width: inherit; position: relative;&quot;&gt;&lt;span style=&quot;box-sizing: border-box; display: block;&quot; class=&quot;md-line md-end-block&quot;&gt;&lt;span style=&quot;box-sizing: border-box;&quot;&gt;药品/治病订单段，数据不是特定于组件或添加剂,与OBR不同,它不包含状态字段或其他数据,只注重结果。&lt;/span&gt;&lt;/span&gt;&lt;/p&gt;&lt;/li&gt;&lt;li style=&quot;box-sizing: border-box; margin: 0px; position: relative;&quot; class=&quot;md-focus-container&quot;&gt;&lt;p style=&quot;box-sizing: border-box; margin-block: 1rem; margin: 0.5rem 0px; width: inherit; position: relative;&quot;&gt;&lt;span style=&quot;box-sizing: border-box; display: block;&quot; class=&quot;md-line md-end-block md-focus&quot;&gt;&lt;span style=&quot;box-sizing: border-box;&quot; class=&quot;&quot;&gt;数量与时间相关信息段&lt;/span&gt;&lt;/span&gt;&lt;/p&gt;&lt;/li&gt;&lt;/ul&gt;&lt;/div&gt;&lt;/div&gt;" style="text;html=1;align=center;verticalAlign=middle;resizable=0;points=[];autosize=1;strokeColor=none;fillColor=none;" vertex="1" parent="9AfMbRzPFio4UTHCIGQ_-35">
          <mxGeometry y="30" width="770" height="110" as="geometry" />
        </mxCell>
        <mxCell id="9AfMbRzPFio4UTHCIGQ_-37" value="收费项目同步模块" style="swimlane;fontStyle=0;childLayout=stackLayout;horizontal=1;startSize=30;horizontalStack=0;resizeParent=1;resizeParentMax=0;resizeLast=0;collapsible=1;marginBottom=0;" vertex="1" parent="1">
          <mxGeometry x="1156" y="710" width="284" height="100" as="geometry" />
        </mxCell>
        <mxCell id="9AfMbRzPFio4UTHCIGQ_-38" value="&lt;div style=&quot;text-align: left;&quot;&gt;&lt;ul style=&quot;box-sizing: border-box; margin: 0.8em 0px; padding-left: 30px; color: rgb(51, 51, 51); font-family: &amp;quot;Open Sans&amp;quot;, &amp;quot;Clear Sans&amp;quot;, &amp;quot;Helvetica Neue&amp;quot;, Helvetica, Arial, sans-serif; font-size: 16px;&quot; data-mark=&quot;*&quot; class=&quot;ul-list&quot;&gt;&lt;li style=&quot;box-sizing: border-box; margin: 0px; position: relative;&quot; class=&quot;md-focus-container&quot;&gt;&lt;p style=&quot;box-sizing: border-box; margin-block: 1rem; margin: 0.5rem 0px; width: inherit; position: relative;&quot;&gt;&lt;span style=&quot;box-sizing: border-box; display: block;&quot; class=&quot;md-line md-end-block md-focus&quot;&gt;&lt;span style=&quot;box-sizing: border-box;&quot; class=&quot;md-expand&quot;&gt;字典信息&lt;/span&gt;&lt;/span&gt;&lt;/p&gt;&lt;/li&gt;&lt;/ul&gt;&lt;ul style=&quot;box-sizing: border-box; margin: 0.8em 0px; padding-left: 30px; color: rgb(51, 51, 51); font-family: &amp;quot;Open Sans&amp;quot;, &amp;quot;Clear Sans&amp;quot;, &amp;quot;Helvetica Neue&amp;quot;, Helvetica, Arial, sans-serif; font-size: 16px;&quot; data-mark=&quot;*&quot; class=&quot;ul-list&quot;&gt;&lt;li style=&quot;box-sizing: border-box; margin: 0px; position: relative;&quot; class=&quot;&quot;&gt;&lt;p style=&quot;box-sizing: border-box; margin-block: 1rem; margin: 0.5rem 0px; width: inherit; position: relative;&quot;&gt;&lt;span style=&quot;box-sizing: border-box; display: block;&quot; class=&quot;md-line md-end-block md-focus&quot;&gt;&lt;span style=&quot;box-sizing: border-box;&quot; class=&quot;&quot;&gt;收费项目字典同步信息的信息段&lt;/span&gt;&lt;/span&gt;&lt;/p&gt;&lt;/li&gt;&lt;/ul&gt;&lt;/div&gt;" style="text;html=1;align=center;verticalAlign=middle;resizable=0;points=[];autosize=1;strokeColor=none;fillColor=none;" vertex="1" parent="9AfMbRzPFio4UTHCIGQ_-37">
          <mxGeometry y="30" width="284" height="70" as="geometry" />
        </mxCell>
        <mxCell id="9AfMbRzPFio4UTHCIGQ_-39" value="药品同步" style="swimlane;fontStyle=0;childLayout=stackLayout;horizontal=1;startSize=30;horizontalStack=0;resizeParent=1;resizeParentMax=0;resizeLast=0;collapsible=1;marginBottom=0;" vertex="1" parent="1">
          <mxGeometry x="1140" y="430" width="284" height="80" as="geometry" />
        </mxCell>
        <mxCell id="9AfMbRzPFio4UTHCIGQ_-40" value="&#xa;&lt;span style=&quot;color: rgb(51, 51, 51); font-family: &amp;quot;Open Sans&amp;quot;, &amp;quot;Clear Sans&amp;quot;, &amp;quot;Helvetica Neue&amp;quot;, Helvetica, Arial, sans-serif; font-size: 16px; font-style: normal; font-variant-ligatures: normal; font-variant-caps: normal; font-weight: normal; letter-spacing: normal; orphans: 2; text-align: left; text-indent: 0px; text-transform: none; widows: 2; word-spacing: 0px; -webkit-text-stroke-width: 0px; background-color: rgb(255, 255, 255); text-decoration-style: initial; text-decoration-color: initial; float: none; display: inline !important;&quot;&gt;药品的字典&lt;/span&gt;&#xa;&#xa;" style="text;html=1;align=center;verticalAlign=middle;resizable=0;points=[];autosize=1;strokeColor=none;fillColor=none;" vertex="1" parent="9AfMbRzPFio4UTHCIGQ_-39">
          <mxGeometry y="30" width="284" height="50" as="geometry" />
        </mxCell>
        <mxCell id="9AfMbRzPFio4UTHCIGQ_-41" value="检验检查报告" style="swimlane;fontStyle=0;childLayout=stackLayout;horizontal=1;startSize=30;horizontalStack=0;resizeParent=1;resizeParentMax=0;resizeLast=0;collapsible=1;marginBottom=0;" vertex="1" parent="1">
          <mxGeometry y="360" width="500" height="180" as="geometry" />
        </mxCell>
        <mxCell id="9AfMbRzPFio4UTHCIGQ_-42" value="&#xa;&lt;ul style=&quot;box-sizing: border-box; margin: 0.8em 0px; padding-left: 30px; color: rgb(51, 51, 51); font-family: &amp;quot;Open Sans&amp;quot;, &amp;quot;Clear Sans&amp;quot;, &amp;quot;Helvetica Neue&amp;quot;, Helvetica, Arial, sans-serif; font-size: 16px; font-style: normal; font-variant-ligatures: normal; font-variant-caps: normal; font-weight: normal; letter-spacing: normal; orphans: 2; text-align: start; text-indent: 0px; text-transform: none; widows: 2; word-spacing: 0px; -webkit-text-stroke-width: 0px; text-decoration-style: initial; text-decoration-color: initial;&quot; data-mark=&quot;*&quot; class=&quot;ul-list&quot;&gt;&lt;li style=&quot;box-sizing: border-box; margin: 0px; position: relative;&quot; class=&quot;md-focus-container&quot;&gt;&lt;p style=&quot;box-sizing: border-box; -webkit-margin-before: 1rem; -webkit-margin-after: 1rem; -webkit-margin-start: 0px; -webkit-margin-end: 0px; margin: 0.5rem 0px; width: inherit; position: relative;&quot;&gt;&lt;span style=&quot;box-sizing: border-box; display: block;&quot; class=&quot;md-line md-end-block md-focus&quot;&gt;&lt;span style=&quot;box-sizing: border-box;&quot; class=&quot;md-expand&quot;&gt;病人就诊的相关信息段&lt;/span&gt;&lt;/span&gt;&lt;/p&gt;&lt;/li&gt;&lt;li style=&quot;box-sizing: border-box; margin: 0px; position: relative;&quot;&gt;&lt;p style=&quot;box-sizing: border-box; -webkit-margin-before: 1rem; -webkit-margin-after: 1rem; -webkit-margin-start: 0px; -webkit-margin-end: 0px; margin: 0.5rem 0px; width: inherit; position: relative;&quot;&gt;&lt;span style=&quot;box-sizing: border-box; display: block;&quot; class=&quot;md-line md-end-block&quot;&gt;&lt;span style=&quot;box-sizing: border-box;&quot;&gt;申请单主要说明段，说明申请相关的科室医生费用等基本信息&lt;/span&gt;&lt;/span&gt;&lt;/p&gt;&lt;/li&gt;&lt;li style=&quot;box-sizing: border-box; margin: 0px; position: relative;&quot;&gt;&lt;p style=&quot;box-sizing: border-box; -webkit-margin-before: 1rem; -webkit-margin-after: 1rem; -webkit-margin-start: 0px; -webkit-margin-end: 0px; margin: 0.5rem 0px; width: inherit; position: relative;&quot;&gt;&lt;span style=&quot;box-sizing: border-box; display: block;&quot; class=&quot;md-line md-end-block&quot;&gt;&lt;span style=&quot;box-sizing: border-box;&quot;&gt;申请单相关细节段，主要说明申请的项目相关信息&lt;/span&gt;&lt;/span&gt;&lt;/p&gt;&lt;/li&gt;&lt;li style=&quot;box-sizing: border-box; margin: 0px; position: relative;&quot; class=&quot;&quot;&gt;&lt;p style=&quot;box-sizing: border-box; -webkit-margin-before: 1rem; -webkit-margin-after: 1rem; -webkit-margin-start: 0px; -webkit-margin-end: 0px; margin: 0.5rem 0px; width: inherit; position: relative;&quot;&gt;&lt;span style=&quot;box-sizing: border-box; display: block;&quot; class=&quot;md-line md-end-block md-focus&quot;&gt;&lt;span style=&quot;box-sizing: border-box;&quot; class=&quot;&quot;&gt;传输一个观察或观察片段。它代表了最小不可分割的单位报告&lt;/span&gt;&lt;/span&gt;&lt;/p&gt;&lt;/li&gt;&lt;/ul&gt;&#xa;&#xa;" style="text;html=1;align=center;verticalAlign=middle;resizable=0;points=[];autosize=1;strokeColor=none;fillColor=none;" vertex="1" parent="9AfMbRzPFio4UTHCIGQ_-41">
          <mxGeometry y="30" width="500" height="150" as="geometry" />
        </mxCell>
        <mxCell id="9AfMbRzPFio4UTHCIGQ_-43" value="中医体制辨别" style="swimlane;fontStyle=0;childLayout=stackLayout;horizontal=1;startSize=30;horizontalStack=0;resizeParent=1;resizeParentMax=0;resizeLast=0;collapsible=1;marginBottom=0;" vertex="1" parent="1">
          <mxGeometry x="954" y="-190" width="350" height="110" as="geometry" />
        </mxCell>
        <mxCell id="9AfMbRzPFio4UTHCIGQ_-44" value="&lt;ul style=&quot;box-sizing: border-box; margin: 0.8em 0px 0px; padding-left: 30px; color: rgb(51, 51, 51); font-family: &amp;quot;Open Sans&amp;quot;, &amp;quot;Clear Sans&amp;quot;, &amp;quot;Helvetica Neue&amp;quot;, Helvetica, Arial, sans-serif; font-size: 16px; text-align: start;&quot; data-mark=&quot;*&quot; class=&quot;ul-list&quot;&gt;&lt;li style=&quot;box-sizing: border-box; margin: 0px; position: relative;&quot; class=&quot;md-focus-container&quot;&gt;&lt;p style=&quot;box-sizing: border-box; margin-block: 1rem; margin: 0.5rem 0px; width: inherit; position: relative;&quot;&gt;&lt;span style=&quot;box-sizing: border-box; display: block;&quot; class=&quot;md-line md-end-block md-focus&quot;&gt;&lt;span style=&quot;box-sizing: border-box;&quot; class=&quot;md-expand&quot;&gt;中医体质辨识基本信息的信息段(JBXX) &lt;/span&gt;&lt;/span&gt;&lt;/p&gt;&lt;/li&gt;&lt;li style=&quot;box-sizing: border-box; margin: 0px; position: relative;&quot;&gt;&lt;p style=&quot;box-sizing: border-box; margin-block: 1rem; margin: 0.5rem 0px; width: inherit; position: relative;&quot;&gt;&lt;span style=&quot;box-sizing: border-box; display: block;&quot; class=&quot;md-line md-end-block&quot;&gt;&lt;span style=&quot;box-sizing: border-box;&quot;&gt;问题相关信息的信息段（WTXG）&lt;/span&gt;&lt;/span&gt;&lt;/p&gt;&lt;/li&gt;&lt;li style=&quot;box-sizing: border-box; margin: 0px; position: relative;&quot; class=&quot;&quot;&gt;&lt;p style=&quot;box-sizing: border-box; margin-block: 1rem; margin: 0.5rem 0px; width: inherit; position: relative;&quot;&gt;&lt;span style=&quot;box-sizing: border-box; display: block;&quot; class=&quot;md-line md-end-block md-focus&quot;&gt;&lt;span style=&quot;box-sizing: border-box;&quot; class=&quot;&quot;&gt;体质相关信息的信息段(TZXG)&lt;/span&gt;&lt;/span&gt;&lt;/p&gt;&lt;/li&gt;&lt;/ul&gt;" style="text;html=1;align=center;verticalAlign=middle;resizable=0;points=[];autosize=1;strokeColor=none;fillColor=none;" vertex="1" parent="9AfMbRzPFio4UTHCIGQ_-43">
          <mxGeometry y="30" width="350" height="80" as="geometry" />
        </mxCell>
      </root>
    </mxGraphModel>
  </diagram>
</mxfile>
